 <?xml version="1.0"?>
<svg version="1.2" xmlns="http://www.w3.org/2000/svg" viewBox="0 0 640 480" width="640" height="480">
	<title>grafico-torta-basico-1</title>
	<style>
		.s0 { fill: #ffffff } 
		.s1 { fill: #2ca02c } 
		.s2 { fill: #1f77b4 } 
		.s3 { fill: #d62728 } 
		.s4 { fill: #9467bd } 
		.s5 { fill: #ff7f0e } 
	</style>
	<g id="Background">
		<path id="Path 0" class="s0" d="m0 240v240h640v-480h-640z"/>
		<path id="Path 1" class="s1" d="m302 97c-5.8 1-14.8 3.3-20 5.1-5.2 1.7-13.6 5.1-18.5 7.4-4.9 2.4-13.3 7.2-18.5 10.7-5.9 3.9-13.9 10.7-21.1 17.8-7.6 7.6-13.8 14.9-18.1 21.5-3.7 5.5-8.7 14.3-11.2 19.5-2.4 5.2-5.6 12.9-7 17-1.3 4.1-3.2 11-4 15.3-0.9 4.2-2.1 12.3-2.7 17.9-0.6 5.7-0.8 15-0.4 20.8 0.3 5.8 1.4 14.8 2.4 20 1 5.2 3.5 14.4 5.5 20.5 2.1 6.1 5.7 14.8 8.2 19.5 2.5 4.7 6.5 11.4 8.9 15 2.4 3.6 7.8 10.5 12.1 15.5 4.4 4.9 10.8 11.4 14.4 14.3 3.6 3 10.6 8.1 15.5 11.4 4.9 3.2 9.2 5.8 9.5 5.8 0.3 0 13.1-23.3 28.5-51.7 15.4-28.4 31.5-57.9 35.8-65.7 4.2-7.8 7.7-14.9 7.7-15.8 0-1 5.7-33.2 12.6-71.5 6.9-38.4 12.2-70 11.9-70.3-0.4-0.3-3-0.8-5.8-1.2-2.9-0.3-11.9-0.7-20.2-0.6-10.1 0-18.4 0.6-25.5 1.8z"/>
		<path id="Path 2" class="s2" d="m372 182.3c-29.1 40-42.9 59.7-42.4 60.7 0.4 1.1 0.7 1.1 1 0.2 0.3-0.9 15.8-1.2 72.9-1.2h72.5c0-3.9-0.5-9.4-1-14.8-0.6-5.3-2.2-14.2-3.5-19.7-1.4-5.5-3.8-13.4-5.4-17.5-1.5-4.1-4.4-10.7-6.4-14.5-1.9-3.9-6.3-11.3-9.8-16.5-3.8-5.8-10.7-13.9-17.4-20.6-6-6-12.4-12-14.2-13.2l-3.1-2.2z"/>
		<path id="Path 3" class="s3" d="m325.1 247.4c-1.5 2.8-17.3 31.7-35.1 64.2-17.7 32.5-32.2 59.5-32.1 60 0 0.5 4 2.8 8.8 5 4.8 2.3 12.6 5.4 17.3 6.9 4.7 1.4 13.6 3.5 19.7 4.6 7.3 1.2 16 1.9 24.3 1.9 8.6 0 17-0.7 24.7-2 6.5-1.2 16.3-3.6 21.8-5.4 5.5-1.8 14.3-5.5 19.5-8.1 5.2-2.6 12.2-6.6 15.5-8.8 3.3-2.2 9.1-6.6 13-9.7 3.9-3.2 9.5-8.4 12.5-11.6 3-3.3 7.7-8.9 10.5-12.4 2.7-3.6 7.3-10.6 10.2-15.5 2.9-4.9 5-9.3 4.5-9.6-0.4-0.3-27.5-13.5-60.2-29.4-32.7-15.8-62.4-30.2-65.9-32l-6.3-3.2z"/>
		<path id="Path 4" class="s4" d="m331.2 243.3c0.3 0.6 27.7 14.4 60.9 30.5 33.2 16.1 62.3 30.2 64.7 31.2l4.2 2c3.9-8.9 6.4-15.6 8-20.5 1.5-4.9 3.5-13.1 4.4-18 0.8-4.9 1.9-12.9 2.3-17.8l0.8-8.7c-130.7 0-145.6 0.3-145.3 1.2z"/>
		<path id="Path 5" class="s5" d="m341.7 167.7c-7.1 38.9-12.7 71.3-12.5 71.8 0.2 0.6 19.6-25.3 43-57.5 34-46.7 42.4-58.8 41.5-59.9-0.7-0.7-5-3.6-9.7-6.4-4.7-2.8-12.6-6.8-17.5-9-4.9-2.1-12.8-4.9-17.5-6.2-4.7-1.3-9.9-2.6-11.5-3l-3.1-0.6z"/>
	</g>
</svg>